<?xml version="1.0" encoding="iso-8859-1"?>
<!-- Generator: Adobe Illustrator 16.0.0, SVG Export Plug-In . SVG Version: 6.00 Build 0)  -->
<!DOCTYPE svg PUBLIC "-//W3C//DTD SVG 1.1//EN" "http://www.w3.org/Graphics/SVG/1.1/DTD/svg11.dtd">
<svg version="1.1" id="Capa_1" xmlns="http://www.w3.org/2000/svg" xmlns:xlink="http://www.w3.org/1999/xlink" x="0px" y="0px"
	 width="216.61px" height="216.61px" viewBox="0 0 216.61 216.61" style="enable-background:new 0 0 216.61 216.61;"
	 xml:space="preserve">
<g>
	<path  stroke="#6875F5" fill="#6875F5" d="M103.468,118.835c0.597,25.136-19.373,46.095-44.533,46.686c-0.362,0.007-0.719,0.013-1.078,0.013
		c-24.667,0-45.026-19.766-45.604-44.549c-0.438-18.788,10.948-36.196,28.339-43.318c1.571-0.642,3.41,0.113,4.059,1.702
		c0.648,1.59-0.119,3.413-1.696,4.064c-15.016,6.15-24.847,21.185-24.466,37.399c0.508,21.708,18.642,39.19,40.31,38.447
		c21.699-0.518,38.946-18.596,38.435-40.304c-0.046-1.718,1.327-3.148,3.041-3.19C102.125,115.913,103.422,117.113,103.468,118.835z
		 M48.97,120.133c-0.073-3.801,2.253-7.088,5.574-8.434l-0.804-34.2c-0.042-1.72,1.321-3.151,3.036-3.194
		c1.717,0.119,3.157,1.322,3.2,3.044l0.804,34.246c3.432,1.229,5.861,4.384,5.955,8.104c0.061,2.362-0.81,4.615-2.457,6.333
		c-1.641,1.717-3.833,2.697-6.211,2.752c-0.024,0-0.174,0-0.198,0C53.01,128.792,49.107,124.986,48.97,120.133z M60.5,119.852
		c-0.031-1.424-1.209-2.588-2.637-2.588c-1.522,0.037-2.682,1.249-2.658,2.723c0.045,1.412,1.229,2.575,2.664,2.575v3.118
		l0.061-3.118c0.7-0.012,1.361-0.311,1.839-0.821C60.256,121.216,60.512,120.553,60.5,119.852z M165.254,127.848
		c-32.145-14.328-51.398,5.82-51.593,6.027c-1.17,1.255-1.097,3.24,0.158,4.409c0.608,0.554,1.363,0.834,2.131,0.834
		c0.828,0,1.675-0.341,2.277-0.992c0.158-0.171,16.368-17.099,44.5-4.573c1.546,0.7,3.409,0,4.116-1.577
		C167.538,130.393,166.832,128.547,165.254,127.848z M215.051,130.009c1.633,4.451,1.571,8.513-0.17,12.093
		c-3.203,6.589-10.997,8.72-11.32,8.817c-19.826,8.452-35.725,11.174-47.988,11.174c-16.367,0-26.238-4.841-30.27-7.368
		c-11.617,8.038-24.274,4.281-24.84,4.11c-0.612-0.183-1.062-0.566-1.428-1.022c-10.108,11.252-24.6,18.522-40.886,18.9
		l-1.367,0.012c-30.57,0-56.035-24.887-56.766-55.472c-0.359-15.175,5.222-29.569,15.695-40.542
		c8.705-9.118,19.936-14.909,32.175-16.836l-0.137-6.378c-3.325-1.727-5.294-4.439-5.349-7.538
		c-0.076-2.844,1.538-5.557,4.408-7.438c2.469-1.616,5.712-2.551,9.134-2.633c3.422-0.048,6.689,0.701,9.229,2.202
		c2.975,1.753,4.701,4.384,4.777,7.228c0.073,3.087-1.754,5.891-4.99,7.776l0.158,6.713c7.188,1.081,13.959,3.51,20.052,7.072
		l2.655-3.443c-0.761-2.25-0.511-4.481,0.768-6.135c1.315-1.708,3.474-2.563,6.031-2.296c1.994,0.201,4.101,1.087,5.921,2.497
		c4.259,3.297,5.663,8.348,3.224,11.508c-1.278,1.653-3.446,2.426-5.736,2.302l-2.512,3.254c4.826,4.521,8.86,9.871,11.889,15.808
		c5.797-2.089,25.915-7.31,38.989,14.623c4.42-1.991,13.329-5.108,22.115-3.015c-2.861-12.421,0.231-25.863,1.754-31.219
		c-8.622,1.084-17.671,0.673-21.885,0.049c-1.145-0.167-2.594-1.309-2.978-2.411c-0.14-0.414-0.365-1.011-0.164-1.985
		c-1.376,0.089-2.74-0.055-3.849-0.608c-0.597-0.296-2.18-1.081-3.068-6.51c-0.512-3.105-0.598-7.322,1.881-9.791
		c5.03-5.039,31.292-12.002,37.71-7.733c7.855,5.24,16.398,18.508,23.784,30.537l0.652,1.072
		C220.648,107.108,216.763,125.059,215.051,130.009z M93.896,69.754l-3.523,4.569c0.119,0.083,0.226,0.165,0.35,0.25l3.504-4.558
		c0.792-1.029,2.125-1.446,3.379-1.078c0.804,0.25,1.258,0.18,1.364,0.131c-0.186-0.042-0.685-1.416-2.256-2.63
		c-1.373-1.059-2.646-1.285-3.2-1.23c0.131,0.088,0.244,0.481,0.569,0.999C94.77,67.309,94.688,68.725,93.896,69.754z
		 M54.109,63.245c0.447-0.018,0.91-0.088,1.364-0.101l1.367-0.012c0.679,0,1.339,0.076,2.006,0.101l-0.18-7.968
		c-0.03-1.297,0.749-2.484,1.945-2.969c2.144-0.868,3.093-2.07,3.082-2.819c-0.021-0.643-0.649-1.391-1.696-2.006
		c-1.528-0.904-3.748-1.397-5.918-1.337c-2.232,0.052-4.378,0.643-5.849,1.61c-1.023,0.667-1.629,1.446-1.607,2.083
		c0.024,0.755,1.026,1.912,3.215,2.673c1.23,0.426,2.07,1.571,2.095,2.868L54.109,63.245z M107.377,118.745
		c-0.648-27.228-23.322-49.383-50.537-49.383l-1.218,0.012C42.117,69.693,29.549,75.25,20.22,85.02
		c-9.323,9.77-14.285,22.588-13.962,36.093c0.648,27.237,23.321,49.396,50.531,49.396l1.218-0.012
		C85.87,169.838,108.026,146.626,107.377,118.745z M208.908,128.639c0.061-0.128,7.423-16.654-11.874-47.985l-0.657-1.078
		c-5.085-8.281-14.56-23.696-21.934-28.609c-3.58-1.942-26.183,3.288-29.849,6.954c-0.646,0.816-0.292,4.348,0.292,6.324
		c1.395-0.137,4.08-0.956,6.284-1.976c1.364-0.652,2.978-0.219,3.849,0.996c0.877,1.208,0.755,2.874-0.256,3.967
		c-0.548,0.572-1.108,1.209-1.596,1.821c7.502,0.5,19.717,0.125,26.707-2.975c1.559-0.697,3.422,0.012,4.116,1.589
		c0.694,1.571-0.018,3.416-1.595,4.116c-1.632,0.722-3.483,1.279-5.407,1.757c-0.013,0.292-0.013,0.588-0.116,0.88
		c-0.073,0.207-6.844,20.496-0.736,35.01c5.468,3.787,9.426,10.065,11.739,18.821c0.438,1.662-0.554,3.367-2.204,3.806
		c-0.28,0.067-0.548,0.109-0.804,0.109c-1.389,0-2.643-0.926-3.008-2.319c-2.338-8.848-6.448-14.554-12.209-16.958
		c-10.248-4.263-22.847,2.892-22.986,2.959c-0.719,0.426-1.596,0.535-2.436,0.292c-0.816-0.237-1.498-0.798-1.894-1.559
		c-10.645-20.533-27.39-16.35-32.429-14.511c2.202,5.809,3.541,12.032,3.699,18.541c0.293,12.836-3.754,24.753-10.738,34.435
		c2.415,0.585,12.004,2.302,20.383-4.548c1.157-0.938,2.813-0.938,3.977,0.018c0.201,0.171,23.352,18.256,74.306-3.459
		c0.451-0.152,5.827-1.68,7.745-5.687c1.078-2.204,0.914-4.933-0.438-8.104C208.463,130.411,208.5,129.461,208.908,128.639z"/>
</g>
<g>
</g>
<g>
</g>
<g>
</g>
<g>
</g>
<g>
</g>
<g>
</g>
<g>
</g>
<g>
</g>
<g>
</g>
<g>
</g>
<g>
</g>
<g>
</g>
<g>
</g>
<g>
</g>
<g>
</g>
</svg>
